<?xml version="1.0" encoding="utf-8"?>
<!-- Generator: Adobe Illustrator 16.0.3, SVG Export Plug-In . SVG Version: 6.00 Build 0)  -->
<!DOCTYPE svg PUBLIC "-//W3C//DTD SVG 1.1//EN" "http://www.w3.org/Graphics/SVG/1.1/DTD/svg11.dtd">
<svg version="1.1" id="Layer_2" xmlns="http://www.w3.org/2000/svg" xmlns:xlink="http://www.w3.org/1999/xlink" x="0px" y="0px"
	 width="419.375px" height="391.25px" viewBox="-2.5 1.875 419.375 391.25" enable-background="new -2.5 1.875 419.375 391.25"
	 xml:space="preserve">
	 <style>

		.element{
			stroke-dasharray: 1000;
			stroke-dashoffset: 1000;
			fill: #FFFFFF;
			transition: 1s ease 1s;
			opacity: 0;
		}

		.animate + #shield > .element{
			opacity: 1;
			transition-delay: 2s;
		}

		.animate > .element{
			opacity: 1;
		}

	</style>
	<g id='graph'>
		<path stroke="#bf8a21" stroke-width="10" stroke-miterlimit="10" d="M283.75,266.25c0,67.5-63.75,121.875-140.625,121.875
			c-28.125,0-76.875-18.75-76.875-18.75l-48.75,7.5L28.75,337.5c0,0-26.25-45-26.25-71.25c0-67.5,63.75-121.875,140.625-121.875
			S283.75,198.75,283.75,266.25z"/>
		<path class='element' d="M89.992,254.404c1.632,0,2.736,1.248,2.736,2.977c0,1.68-1.104,2.977-2.832,2.977
			c-1.681,0-2.832-1.297-2.832-2.977c0-1.729,1.199-2.977,2.879-2.977H89.992z M87.591,287.19l0.673-22.897h3.264l0.721,22.897
			H87.591z"/>
		<path class='element' d="M103.24,245.475v13.538h15.648v-13.538h4.225v32.355h-4.225v-15.17H103.24v15.17h-4.176v-32.355H103.24z"/>
		<path class='element' d="M151.241,266.021c0,8.593-5.953,12.337-11.569,12.337c-6.289,0-11.137-4.608-11.137-11.953
			c0-7.776,5.088-12.337,11.521-12.337C146.729,254.068,151.241,258.916,151.241,266.021z M132.809,266.262
			c0,5.088,2.928,8.929,7.057,8.929c4.031,0,7.057-3.792,7.057-9.024c0-3.938-1.968-8.929-6.961-8.929
			C134.968,257.236,132.809,261.845,132.809,266.262z"/>
		<path class='element' d="M156.566,243.747h4.225v34.083h-4.225V243.747z"/>
		<path class='element' d="M184.216,272.262c0,2.017,0.097,3.984,0.384,5.568h-3.84l-0.336-2.929h-0.145
			c-1.295,1.823-3.791,3.457-7.104,3.457c-4.703,0-7.104-3.313-7.104-6.674c0-5.616,4.992-8.688,13.969-8.641v-0.479
			c0-1.921-0.527-5.377-5.281-5.377c-2.16,0-4.416,0.673-6.048,1.729l-0.96-2.783c1.92-1.248,4.705-2.063,7.633-2.063
			c7.104,0,8.833,4.848,8.833,9.504v8.688H184.216z M180.136,265.973c-4.608-0.096-9.841,0.722-9.841,5.232
			c0,2.736,1.824,4.033,3.984,4.033c3.023,0,4.945-1.921,5.617-3.89c0.144-0.432,0.239-0.912,0.239-1.344V265.973z"/>
		<path class='element' d="M192.999,278.358c-1.632,0-2.785-1.296-2.785-2.978c0-1.729,1.2-2.977,2.833-2.977
			c1.729,0,2.832,1.248,2.832,2.977c0,1.682-1.104,2.978-2.832,2.978H192.999z M191.414,268.518l-0.672-23.043h4.607l-0.672,23.043
			H191.414z"/>
	</g>
	<g id='shield'>
		<path fill="#bf8a21" d="M416.875,123.75c0,31.875-37.5,82.5-37.5,82.5l30,39.375l-60-18.75c0,0-24.375,11.25-39.375,15
			c0,0-26.75-118.125-176.25-123.75C137.5,52.5,199.375,1.875,274.375,1.875C353.125,1.875,416.875,56.25,416.875,123.75z"/>
		<path class='element' d="M183.749,111.241v-0.098c3.476-1.273,5.582-4.063,5.582-7.245c0-2.595-1.028-4.553-2.742-5.826
			c-2.056-1.665-4.798-2.399-9.057-2.399c-2.986,0-5.923,0.294-7.783,0.686v25.628c0.44,0.039,4.196,0.843,4.259,0.854v-9.74h3.524
			c4.651,0,8.519,1.86,8.519,6.364c0,2.69-1.287,4.365-3.188,5.327c0.324,0.054,4.898,1.333,4.9,1.331
			c1.664-1.615,2.789-3.769,2.789-6.608C190.555,114.618,186.883,112.024,183.749,111.241z M177.875,109.869h-3.868V99.246
			c0.685-0.147,1.812-0.293,3.769-0.293c4.311,0,7.246,1.518,7.246,5.385C185.021,107.52,182.379,109.869,177.875,109.869z"/>
		<path class='element' d="M200.936,98.561c0.049,1.469-1.026,2.644-2.74,2.644c-1.519,0-2.594-1.175-2.594-2.644
			c0-1.517,1.125-2.692,2.689-2.692C199.908,95.869,200.936,97.043,200.936,98.561z M196.139,128.913v-23.694h4.307v23.694H196.139z"
			/>
		<path class='element' d="M209.993,117.85c0.098,5.825,3.819,8.224,8.127,8.224c3.085,0,4.943-0.539,6.56-1.224l0.735,3.083
			c-1.518,0.687-4.112,1.519-7.883,1.519c-7.294,0-11.652-4.846-11.652-11.994s4.211-12.778,11.114-12.778
			c7.734,0,9.791,6.805,9.791,11.162c0,0.881-0.1,1.566-0.146,2.007L209.993,117.85L209.993,117.85z M222.623,114.765
			c0.05-2.741-1.125-7-5.971-7c-4.358,0-6.268,4.014-6.609,7H222.623z"/>
		<path class='element' d="M232.124,111.631c0-2.447-0.05-4.454-0.196-6.413h3.819l0.244,3.917h0.099
			c1.175-2.252,3.916-4.456,7.831-4.456c3.281,0,8.373,1.958,8.373,10.085v14.148h-4.308v-13.659c0-3.819-1.42-7-5.483-7
			c-2.84,0-5.043,2.007-5.778,4.405c-0.194,0.539-0.293,1.273-0.293,2.008v14.246h-4.308V111.631L232.124,111.631z"/>
		<path class='element' d="M260.327,105.219l4.649,13.316c0.783,2.154,1.42,4.112,1.907,6.071h0.148
			c0.538-1.958,1.223-3.917,2.006-6.071l4.603-13.316h4.504l-9.301,23.694h-4.111l-9.01-23.694H260.327z"/>
		<path class='element' d="M284.12,117.85c0.098,5.825,3.819,8.224,8.127,8.224c3.085,0,4.944-0.539,6.56-1.224l0.735,3.083
			c-1.518,0.687-4.112,1.519-7.882,1.519c-7.295,0-11.653-4.846-11.653-11.994s4.211-12.778,11.115-12.778
			c7.735,0,9.79,6.805,9.79,11.162c0,0.881-0.097,1.566-0.147,2.007L284.12,117.85L284.12,117.85z M296.75,114.765
			c0.051-2.741-1.125-7-5.971-7c-4.358,0-6.268,4.014-6.609,7H296.75z"/>
		<path class='element' d="M306.251,111.631c0-2.447-0.049-4.454-0.195-6.413h3.818l0.244,3.917h0.099
			c1.175-2.252,3.916-4.456,7.831-4.456c3.281,0,8.373,1.958,8.373,10.085v14.148h-4.308v-13.659c0-3.819-1.42-7-5.482-7
			c-2.84,0-5.044,2.007-5.777,4.405c-0.196,0.539-0.295,1.273-0.295,2.008v14.246h-4.308V111.631L306.251,111.631z"/>
		<path class='element' d="M338.222,98.561c0.05,1.469-1.026,2.644-2.741,2.644c-1.518,0-2.594-1.175-2.594-2.644
			c0-1.517,1.125-2.692,2.691-2.692C337.194,95.869,338.222,97.043,338.222,98.561z M333.424,128.913v-23.694h4.309v23.694H333.424z"
			/>
		<path class='element' d="M365.344,94.155v28.638c0,2.105,0.05,4.504,0.197,6.12h-3.867l-0.197-4.112h-0.099
			c-1.321,2.643-4.209,4.65-8.077,4.65c-5.727,0-10.135-4.846-10.135-12.043c-0.047-7.882,4.849-12.729,10.625-12.729
			c3.622,0,6.071,1.713,7.146,3.623h0.1V94.155H365.344L365.344,94.155z M361.036,114.863c0-0.539-0.048-1.273-0.196-1.812
			c-0.635-2.741-2.986-4.993-6.217-4.993c-4.454,0-7.099,3.917-7.099,9.155c0,4.798,2.35,8.764,7,8.764
			c2.889,0,5.531-1.91,6.314-5.142c0.148-0.587,0.196-1.175,0.196-1.86L361.036,114.863L361.036,114.863z"/>
		<path class='element' d="M393.938,116.87c0,8.763-6.069,12.582-11.798,12.582c-6.414,0-11.356-4.699-11.356-12.189
			c0-7.931,5.188-12.582,11.749-12.582C389.337,104.68,393.938,109.625,393.938,116.87z M375.138,117.115
			c0,5.189,2.985,9.105,7.196,9.105c4.112,0,7.197-3.868,7.197-9.204c0-4.015-2.006-9.105-7.1-9.105
			C377.342,107.912,375.138,112.611,375.138,117.115z"/>
	</g>
</svg>
