<?xml version="1.0" encoding="utf-8"?>
<!-- Generator: Adobe Illustrator 16.0.3, SVG Export Plug-In . SVG Version: 6.00 Build 0)  -->
<!DOCTYPE svg PUBLIC "-//W3C//DTD SVG 1.1//EN" "http://www.w3.org/Graphics/SVG/1.1/DTD/svg11.dtd">
<svg version="1.1" id="Layer_2" xmlns="http://www.w3.org/2000/svg" xmlns:xlink="http://www.w3.org/1999/xlink" x="0px" y="0px"
	 width="419.375px" height="391.25px" viewBox="188.75 73.125 419.375 391.25"
	 enable-background="new 188.75 73.125 419.375 391.25" xml:space="preserve">
<path stroke="#D2AC5C" stroke-width="10" stroke-miterlimit="10" d="M475,337.5c0,67.5-63.75,121.875-140.625,121.875
	c-28.125,0-76.875-18.75-76.875-18.75l-48.75,7.5L220,408.75c0,0-26.25-45-26.25-71.25c0-67.5,63.75-121.875,140.625-121.875
	S475,270,475,337.5z"/>
<path fill="#D2AC5C" d="M608.125,195c0,31.875-37.5,82.5-37.5,82.5l30,39.375l-60-18.75c0,0-24.375,11.25-39.375,15
	c0,0-26.75-118.125-176.25-123.75c3.75-65.625,65.625-116.25,140.625-116.25C544.375,73.125,608.125,127.5,608.125,195z"/>
<g>
	<path fill="#FFFFFF" d="M281.242,325.654c1.632,0,2.736,1.248,2.736,2.977c0,1.68-1.104,2.976-2.832,2.976
		c-1.68,0-2.832-1.296-2.832-2.976c0-1.729,1.2-2.977,2.88-2.977H281.242z M278.841,358.44l0.672-22.897h3.265l0.72,22.897H278.841z
		"/>
	<path fill="#FFFFFF" d="M294.49,316.725v13.538h15.649v-13.538h4.224v32.355h-4.224v-15.17H294.49v15.17h-4.176v-32.355H294.49z"/>
	<path fill="#FFFFFF" d="M342.491,337.271c0,8.593-5.953,12.337-11.569,12.337c-6.289,0-11.137-4.608-11.137-11.953
		c0-7.776,5.088-12.337,11.521-12.337C337.979,325.318,342.491,330.166,342.491,337.271z M324.058,337.512
		c0,5.088,2.928,8.928,7.057,8.928c4.032,0,7.057-3.792,7.057-9.024c0-3.937-1.968-8.929-6.961-8.929
		C326.218,328.486,324.058,333.095,324.058,337.512z"/>
	<path fill="#FFFFFF" d="M347.817,314.997h4.224v34.083h-4.224V314.997z"/>
	<path fill="#FFFFFF" d="M375.466,343.512c0,2.016,0.096,3.984,0.384,5.568h-3.84l-0.336-2.929h-0.144
		c-1.296,1.824-3.792,3.457-7.104,3.457c-4.704,0-7.104-3.313-7.104-6.673c0-5.617,4.992-8.689,13.969-8.641v-0.48
		c0-1.92-0.528-5.376-5.281-5.376c-2.16,0-4.416,0.672-6.048,1.728l-0.96-2.783c1.92-1.248,4.705-2.064,7.633-2.064
		c7.104,0,8.833,4.848,8.833,9.504V343.512z M371.386,337.223c-4.608-0.096-9.841,0.721-9.841,5.232
		c0,2.736,1.824,4.033,3.984,4.033c3.024,0,4.945-1.921,5.617-3.889c0.144-0.432,0.24-0.912,0.24-1.344V337.223z"/>
	<path fill="#FFFFFF" d="M384.249,349.608c-1.632,0-2.785-1.296-2.785-2.977c0-1.729,1.2-2.977,2.833-2.977
		c1.728,0,2.832,1.248,2.832,2.977c0,1.681-1.104,2.977-2.832,2.977H384.249z M382.664,339.768l-0.672-23.043h4.608l-0.672,23.043
		H382.664z"/>
</g>
<g>
	<path fill="#FFFFFF" d="M374.999,182.491v-0.098c3.476-1.273,5.582-4.063,5.582-7.245c0-2.595-1.028-4.553-2.742-5.826
		c-2.056-1.665-4.798-2.399-9.057-2.399c-2.986,0-5.923,0.294-7.783,0.686v25.628c0.44,0.039,4.197,0.843,4.259,0.854v-9.74h3.524
		c4.651,0,8.519,1.86,8.519,6.364c0,2.69-1.287,4.365-3.188,5.327c0.325,0.054,4.898,1.333,4.901,1.331
		c1.664-1.615,2.789-3.769,2.789-6.608C381.804,185.868,378.133,183.274,374.999,182.491z M369.125,181.119h-3.868v-10.623
		c0.685-0.147,1.812-0.293,3.769-0.293c4.31,0,7.246,1.518,7.246,5.385C376.272,178.77,373.629,181.119,369.125,181.119z"/>
	<path fill="#FFFFFF" d="M392.186,169.811c0.049,1.469-1.027,2.644-2.741,2.644c-1.518,0-2.594-1.175-2.594-2.644
		c0-1.517,1.125-2.692,2.69-2.692C391.158,167.119,392.186,168.293,392.186,169.811z M387.388,200.163v-23.694h4.308v23.694H387.388
		z"/>
	<path fill="#FFFFFF" d="M401.243,189.1c0.098,5.825,3.819,8.224,8.127,8.224c3.085,0,4.943-0.539,6.56-1.224l0.735,3.084
		c-1.518,0.686-4.112,1.518-7.883,1.518c-7.294,0-11.652-4.846-11.652-11.994c0-7.148,4.211-12.778,11.114-12.778
		c7.735,0,9.791,6.805,9.791,11.162c0,0.881-0.099,1.566-0.146,2.007H401.243z M413.873,186.015c0.05-2.741-1.125-7-5.971-7
		c-4.358,0-6.267,4.014-6.609,7H413.873z"/>
	<path fill="#FFFFFF" d="M423.374,182.881c0-2.447-0.05-4.454-0.196-6.413h3.819l0.244,3.917h0.099
		c1.175-2.252,3.916-4.456,7.831-4.456c3.281,0,8.373,1.958,8.373,10.085v14.148h-4.308v-13.659c0-3.819-1.42-7-5.483-7
		c-2.84,0-5.043,2.007-5.778,4.405c-0.195,0.539-0.293,1.273-0.293,2.008v14.246h-4.308V182.881z"/>
	<path fill="#FFFFFF" d="M451.577,176.469l4.65,13.316c0.783,2.154,1.419,4.112,1.907,6.071h0.148
		c0.538-1.958,1.223-3.917,2.006-6.071l4.603-13.316h4.504l-9.301,23.694h-4.112l-9.009-23.694H451.577z"/>
	<path fill="#FFFFFF" d="M475.37,189.1c0.098,5.825,3.819,8.224,8.127,8.224c3.085,0,4.944-0.539,6.56-1.224l0.735,3.084
		c-1.518,0.686-4.112,1.518-7.882,1.518c-7.295,0-11.653-4.846-11.653-11.994c0-7.148,4.211-12.778,11.115-12.778
		c7.735,0,9.79,6.805,9.79,11.162c0,0.881-0.097,1.566-0.147,2.007H475.37z M488,186.015c0.051-2.741-1.125-7-5.971-7
		c-4.358,0-6.267,4.014-6.609,7H488z"/>
	<path fill="#FFFFFF" d="M497.501,182.881c0-2.447-0.049-4.454-0.195-6.413h3.818l0.244,3.917h0.099
		c1.175-2.252,3.916-4.456,7.831-4.456c3.281,0,8.373,1.958,8.373,10.085v14.148h-4.308v-13.659c0-3.819-1.42-7-5.482-7
		c-2.84,0-5.044,2.007-5.777,4.405c-0.197,0.539-0.295,1.273-0.295,2.008v14.246h-4.308V182.881z"/>
	<path fill="#FFFFFF" d="M529.472,169.811c0.05,1.469-1.027,2.644-2.741,2.644c-1.518,0-2.594-1.175-2.594-2.644
		c0-1.517,1.125-2.692,2.691-2.692C528.444,167.119,529.472,168.293,529.472,169.811z M524.674,200.163v-23.694h4.308v23.694
		H524.674z"/>
	<path fill="#FFFFFF" d="M556.594,165.405v28.638c0,2.105,0.05,4.504,0.197,6.12h-3.867l-0.197-4.112h-0.099
		c-1.321,2.643-4.209,4.65-8.077,4.65c-5.727,0-10.135-4.846-10.135-12.043c-0.047-7.882,4.849-12.729,10.625-12.729
		c3.622,0,6.071,1.713,7.146,3.623h0.099v-14.147H556.594z M552.286,186.113c0-0.539-0.048-1.273-0.196-1.812
		c-0.635-2.741-2.986-4.993-6.217-4.993c-4.454,0-7.099,3.917-7.099,9.155c0,4.798,2.35,8.763,7,8.763
		c2.889,0,5.532-1.909,6.315-5.141c0.148-0.587,0.196-1.175,0.196-1.86V186.113z"/>
	<path fill="#FFFFFF" d="M585.187,188.12c0,8.763-6.069,12.582-11.797,12.582c-6.414,0-11.357-4.699-11.357-12.189
		c0-7.931,5.188-12.582,11.749-12.582C580.587,175.93,585.187,180.875,585.187,188.12z M566.388,188.365
		c0,5.189,2.985,9.105,7.196,9.105c4.112,0,7.197-3.867,7.197-9.203c0-4.015-2.006-9.105-7.099-9.105
		C568.592,179.162,566.388,183.861,566.388,188.365z"/>
</g>
</svg>
