<?xml version="1.0" encoding="utf-8"?>
<!-- Generator: Adobe Illustrator 22.0.0, SVG Export Plug-In . SVG Version: 6.00 Build 0)  -->
<svg version="1.1" id="Layer_2" xmlns="http://www.w3.org/2000/svg" xmlns:xlink="http://www.w3.org/1999/xlink" x="0px" y="0px"
	 viewBox="0 0 32 32" style="enable-background:new 0 0 32 32;" xml:space="preserve">
<style type="text/css">
	.st0{stroke:#D2AC5C;stroke-miterlimit:10;}
	.st1{fill:#D2AC5C;}
</style>
<path class="st0" d="M20,18c0,3.6-3.4,6.5-7.5,6.5c-1.5,0-4.1-1-4.1-1l-2.6,0.4l0.6-2.1c0,0-1.4-2.4-1.4-3.8c0-3.6,3.4-6.5,7.5-6.5
	S20,14.4,20,18z"/>
<path class="st1" d="M27.1,10.4c0,1.7-2,4.4-2,4.4l1.6,2.1l-3.2-1c0,0-1.3,0.6-2.1,0.8c0,0-0.3-0.7-0.7-1.6c-1.2-2.9-3.9-4.9-7-4.9
	c-1,0-1.7,0-1.7-0.1c0.2-3.5,3.5-6.2,7.5-6.2C23.7,3.9,27.1,6.8,27.1,10.4z"/>
</svg>
