<?xml version="1.0" encoding="utf-8"?>
<!-- Generator: Adobe Illustrator 16.0.3, SVG Export Plug-In . SVG Version: 6.00 Build 0)  -->
<!DOCTYPE svg PUBLIC "-//W3C//DTD SVG 1.1//EN" "http://www.w3.org/Graphics/SVG/1.1/DTD/svg11.dtd">
<svg version="1.1" id="Capa_1" xmlns="http://www.w3.org/2000/svg" xmlns:xlink="http://www.w3.org/1999/xlink" x="0px" y="0px"
	 width="125.356px" height="125.31px" viewBox="0 0 125.356 125.31" enable-background="new 0 0 125.356 125.31"
	 xml:space="preserve">

<style>
	.vela{
		animation: velas 5s infinite ease;
		transform: translateY(-50px)
	}

	.velaR{
		animation: velasreverse 5s infinite ease;
		transform: translateY(50px)
	}

	<!-- #v3{
		animation-delay: .5s
	}

	#v4{
		animation-delay: 1.7s
	}

	#v5{
		animation-delay: 1.9s
	}

	#v7{
		animation-duration: 2s
	} -->

	@keyframes velas{
		0%{
			transform: translateY(-50px);
		}
		50%{
			transform: translateY(0px);
		}
		100%{
			transform: translateY(-50px);
		}
	}

	@keyframes velasreverse{
		0%{
			transform: translateY(50px);
		}
		50%{
			transform: translateY(0px);
		}
		100%{
			transform: translateY(50px);
		}
	}
</style>
<g>
	<path fill-rule="evenodd" clip-rule="evenodd" fill="#D3AD5D" d="M0.245,1.322C0.107,0.209,0.661-0.018,1.68,0.001
		c2.725,0.052,2.726,0.007,2.726,2.743c0,38.771-0.001,77.543,0.003,116.314c0,2.165-0.237,1.895,1.9,1.895
		c39.045,0.006,78.091,0.004,117.137,0.004c1.91,0,1.912,0.001,1.91,1.856c-0.001,0.731-0.013,1.463-0.02,2.194
		c-0.411,0.308-0.886,0.16-1.328,0.161c-40.78,0.007-81.562,0.007-122.341,0.001c-0.447,0-0.917,0.123-1.34-0.139
		c-0.027-0.367-0.055-0.735-0.083-1.104c-0.17-0.49-0.087-0.997-0.087-1.496C0.153,82.56,0.153,42.69,0.158,2.819
		C0.158,2.32,0.074,1.813,0.245,1.322z"/>
	<g class="velaR" id="v1">
		<path fill-rule="evenodd" clip-rule="evenodd" fill="#D3AD5D" d="M14.885,112.399c-0.007-1.644-0.055-3.288-0.004-4.93
			c0.027-0.866-0.215-1.177-1.136-1.186c-3.03-0.026-3.034-0.064-3.029-3.069c0.009-5.888,0.024-11.776,0.036-17.664
			c1.325-0.395,2.708,0.089,4.036-0.261c0.025-1.629,0.092-3.259,0.06-4.887c-0.017-0.833,0.149-1.266,1.103-1.185
			c0.991,0.083,1.992,0.04,2.989,0.053c0.326,1.506,0.057,3.031,0.144,4.545c0.028,0.49-0.076,0.987,0.087,1.47l0.034,0.033
			c1.262,0.224,2.542-0.029,3.806,0.143c0.362,0.385,0.232,0.865,0.233,1.308c0.008,6.032-0.022,12.065,0.03,18.097
			c0.009,1.157-0.361,1.545-1.489,1.46c-0.857-0.063-1.727,0.05-2.591,0.083c-0.318,1.989,0.095,4.005-0.214,5.994l-0.059,0.059
			C17.572,112.593,16.226,112.715,14.885,112.399z"/>
		<path fill-rule="evenodd" clip-rule="evenodd" fill="#1A1A1A" d="M18.99,95.869c-0.001,1.779-0.018,3.559,0.008,5.337
		c0.009,0.62-0.166,0.965-0.842,0.885c-0.045-0.006-0.091-0.002-0.137,0c-3.144,0.148-3.144,0.148-3.144-2.967
		c0-2.782,0.028-5.564-0.017-8.347c-0.014-0.824,0.211-1.088,1.068-1.099c3.064-0.039,3.064-0.074,3.064,3.044
		C18.991,93.771,18.991,94.82,18.99,95.869z"/>
	</g>
	<g class="vela" id="v2">
		<path fill-rule="evenodd" clip-rule="evenodd" fill="#D3AD5D" d="M41.936,56.483c0.008,9.317,0.004,18.635,0.038,27.951
			c0.003,0.836-0.225,1.078-1.072,1.087c-3.113,0.031-3.082,0.066-3.121,3.259c-0.043,3.46,0.644,2.922-3.07,2.972
			c-0.357,0.005-0.739,0.068-1.032-0.234c-0.2-1.977,0.13-3.969-0.172-5.942c-0.957-0.025-1.919-0.127-2.869-0.056
			c-1.005,0.076-1.202-0.332-1.198-1.253c0.031-8.909,0.017-17.817,0.022-26.727c0-0.399-0.101-0.831,0.234-1.169
			c1.264-0.173,2.544,0.081,3.806-0.143l0.033-0.034c0.195-1.564,0.028-3.136,0.093-4.702c0.018-0.438-0.126-0.898,0.139-1.313
			c1.275-0.024,2.896-0.536,3.726,0.175c0.869,0.745,0.19,2.413,0.291,3.672c0.059,0.725,0.073,1.453,0.107,2.18
			C39.222,56.547,40.611,56.048,41.936,56.483z"/>
		<path fill-rule="evenodd" clip-rule="evenodd" fill="#1B1B1A" d="M37.749,70.85c0,3.013-0.033,6.026,0.018,9.038
		c0.017,1.002-0.164,1.46-1.33,1.434c-2.721-0.062-2.722,0.004-2.722-2.745c0-5.523,0.028-11.048-0.024-16.571
		c-0.01-1.081,0.18-1.513,1.391-1.471c2.665,0.09,2.667,0.019,2.667,2.646C37.749,65.737,37.749,68.293,37.749,70.85z"/>
	</g>
	<g class="velaR" id="v3">
		<path fill-rule="evenodd" clip-rule="evenodd" fill="#D3AD5D" d="M48.308,18.904c1.001-0.013,2.003-0.058,3.003-0.028
			c0.836,0.025,1.132-0.345,1.113-1.148c-0.032-1.365,0.02-2.732-0.02-4.097c-0.02-0.715,0.13-1.037,0.961-1.062
			c3.167-0.095,3.166-0.129,3.166,3.08c0,3.199,0,3.198,3.153,3.22c0.318,0.002,0.636,0.023,0.954,0.035
			c0.262,0.424,0.138,0.893,0.139,1.34c0.007,12.98,0.008,25.961-0.002,38.942c0,0.441,0.147,0.916-0.16,1.326
			c-1.051,0.008-2.104,0.05-3.153,0.011c-0.726-0.027-0.959,0.258-0.94,0.962c0.037,1.415-0.016,2.834,0.019,4.25
			c0.018,0.715-0.138,1.047-0.969,1.077c-3.156,0.113-3.155,0.147-3.155-2.997c0-3.268,0-3.268-3.263-3.282
			c-0.273-0.002-0.548-0.013-0.822-0.021c-0.273-0.315-0.162-0.698-0.163-1.053c-0.006-13.163-0.005-26.327,0-39.49
			C48.168,19.612,48.074,19.234,48.308,18.904z"/>
		<path fill-rule="evenodd" clip-rule="evenodd" fill="#1A1A1A" d="M52.416,39.648c0-5.12,0.03-10.24-0.025-15.359
		c-0.012-1.048,0.3-1.3,1.309-1.286c2.831,0.042,2.832-0.004,2.832,2.89c0,9.646-0.025,19.291,0.03,28.937
		c0.008,1.229-0.33,1.54-1.521,1.504c-2.623-0.078-2.625-0.016-2.625-2.697C52.416,48.973,52.416,44.311,52.416,39.648z"/>
	</g>
	<g class="vela" id="v4">
		<path fill-rule="evenodd" clip-rule="evenodd" fill="#D3AD5D" d="M75.439,47.905c1.001,0.026,2.006,0.113,3.003,0.059
			c0.874-0.048,1.064,0.301,1.062,1.107c-0.027,6.204-0.034,12.409,0.004,18.614c0.006,0.94-0.338,1.166-1.193,1.129
			c-0.951-0.041-1.908,0.046-2.862,0.078c-0.276,1.565-0.047,3.146-0.135,4.718c-0.027,0.481,0.164,0.993-0.162,1.443
			c-1.049,0.007-2.1-0.025-3.146,0.032c-0.743,0.042-0.937-0.259-0.916-0.951c0.041-1.413-0.026-2.829,0.025-4.241
			c0.029-0.813-0.212-1.126-1.071-1.119c-0.98,0.007-2.257,0.466-2.873-0.235c-0.593-0.674-0.173-1.922-0.177-2.916
			c-0.018-5.428,0.017-10.855-0.03-16.282c-0.009-1.027,0.197-1.417,1.329-1.389c2.807,0.07,2.809,0.009,2.809-2.847
			c0-0.092-0.012-0.185,0.001-0.273c0.145-1.013-0.529-2.554,0.315-2.932c1.082-0.485,2.565-0.415,3.846,0.063
			C75.468,43.94,75.138,45.931,75.439,47.905z"/>		
		<path fill-rule="evenodd" clip-rule="evenodd" fill="#1B1B1A" d="M75.231,58.397c-0.002,1.781-0.016,3.563,0.006,5.343
			c0.008,0.612-0.162,0.868-0.841,0.916c-3.283,0.232-3.281,0.255-3.281-3c0-2.785,0.025-5.571-0.016-8.356
			c-0.012-0.812,0.211-1.105,1.065-1.13c3.067-0.089,3.067-0.121,3.067,2.94C75.232,56.206,75.232,57.301,75.231,58.397z"/>
	</g>
	<g class="velaR" id="v5">
		<path fill-rule="evenodd" clip-rule="evenodd" fill="#D3AD5D" d="M89.735,89.742c-1.001-0.031-2.003-0.104-3.003-0.081
			c-0.738,0.018-1.051-0.181-1.048-0.992c0.023-9.04,0.023-18.081,0-27.121c-0.003-0.812,0.309-1.011,1.048-0.993
			c1,0.024,2.002-0.049,3.003-0.081c0.292-1.521,0.043-3.058,0.133-4.585c0.032-0.532-0.145-1.084,0.14-1.594
			c1.05-0.012,2.101,0.007,3.148-0.046c0.715-0.037,0.961,0.223,0.938,0.941c-0.045,1.459,0.022,2.923-0.026,4.382
			c-0.026,0.792,0.282,1.009,1.036,1.015c0.986,0.007,2.284-0.458,2.884,0.22c0.63,0.713,0.198,2.008,0.2,3.046
			c0.016,8.127-0.015,16.255,0.035,24.382c0.007,1.135-0.278,1.474-1.43,1.442c-2.71-0.073-2.69-0.013-2.722,2.7
			c-0.014,1.13,0.497,2.611-0.206,3.298c-0.76,0.743-2.254,0.171-3.425,0.245c-0.136,0.009-0.273-0.01-0.41-0.017
			c-0.381-1.463-0.058-2.952-0.17-4.426C89.817,90.899,89.995,90.304,89.735,89.742z"/>
		<path fill-rule="evenodd" clip-rule="evenodd" fill="#1A1A1A" d="M94.071,75.108c0,3.018-0.034,6.035,0.02,9.052
			c0.018,0.965-0.163,1.372-1.258,1.356c-2.876-0.039-2.877,0.018-2.877-2.865c0-5.532,0.022-11.064-0.021-16.596
			c-0.008-1.011,0.168-1.434,1.319-1.404c2.814,0.073,2.816,0.009,2.816,2.776C94.071,69.988,94.071,72.547,94.071,75.108z"/>
	</g>
	<g class="vela" id="v6">
		<path fill-rule="evenodd" clip-rule="evenodd" fill="#D3AD5D" d="M116.855,64.627c-1.049,0.008-2.101,0.049-3.148,0.011
			c-0.717-0.025-0.964,0.246-0.945,0.954c0.037,1.46-0.018,2.922,0.02,4.382c0.018,0.715-0.252,0.916-0.954,0.948
			c-3.172,0.143-3.171,0.165-3.171-2.968c0-3.194,0-3.219-3.093-3.289c-0.74-0.017-1.04-0.183-1.036-0.987
			c0.035-9.356,0.039-18.713,0.051-28.069c1.307-0.394,2.675,0.099,3.984-0.272c0.031-1.597,0.112-3.195,0.074-4.79
			c-0.021-0.9,0.167-1.284,1.186-1.28c2.949,0.009,2.941-0.039,2.953,2.926c0.005,1.048,0.059,2.096,0.09,3.145
			c1.315,0.351,2.677-0.08,3.995,0.233l0.059,0.059c0.152,0.301,0.103,0.626,0.103,0.943c0.002,9.001,0.003,18.002-0.003,27.004
			C117.019,63.929,117.13,64.312,116.855,64.627z"/>
		<path fill-rule="evenodd" clip-rule="evenodd" fill="#1A1A1A" d="M108.656,50.002c0-3.059,0.035-6.118-0.021-9.177
		c-0.017-0.919,0.284-1.13,1.157-1.129c2.979,0.003,2.979-0.031,2.979,2.984c0,5.524-0.027,11.05,0.024,16.574
		c0.01,1.033-0.276,1.309-1.298,1.293c-2.841-0.043-2.842,0.005-2.842-2.874C108.656,55.117,108.656,52.559,108.656,50.002z"/>
	</g>
</g>
</svg>
