<?xml version="1.0" encoding="utf-8"?>
<!-- Generator: Adobe Illustrator 16.0.3, SVG Export Plug-In . SVG Version: 6.00 Build 0)  -->
<!DOCTYPE svg PUBLIC "-//W3C//DTD SVG 1.1//EN" "http://www.w3.org/Graphics/SVG/1.1/DTD/svg11.dtd">
<svg version="1.1" id="Capa_1" xmlns="http://www.w3.org/2000/svg" xmlns:xlink="http://www.w3.org/1999/xlink" x="0px" y="0px"
	 width="125.219px" height="148.048px" viewBox="0.137 -22.845 125.219 148.048"
	 enable-background="new 0.137 -22.845 125.219 148.048" xml:space="preserve">
<style>
	.vela{
		animation: velas 5s infinite ease;
		transform: translateY(-50px)
	}

	.velaR{
		animation: velasreverse 5s infinite ease;
		transform: translateY(50px)
	}

	<!-- #v3{
		animation-delay: .5s
	}

	#v4{
		animation-delay: 1.7s
	}

	#v5{
		animation-delay: 1.9s
	}

	#v7{
		animation-duration: 2s
	} -->

	@keyframes velas{
		0%{
			transform: translateY(-50px);
		}
		50%{
			transform: translateY(0px);
		}
		100%{
			transform: translateY(-50px);
		}
	}

	@keyframes velasreverse{
		0%{
			transform: translateY(50px);
		}
		50%{
			transform: translateY(0px);
		}
		100%{
			transform: translateY(50px);
		}
	}
</style>
<g>
	<path fill="#D3AD5D" d="M0.245,1.322C0.107,0.209,0.661-0.018,1.68,0.001c2.725,0.052,2.726,0.007,2.726,2.743
		c0,38.771-0.001,77.543,0.004,116.314c0,2.165-0.237,1.895,1.899,1.895c39.045,0.006,78.091,0.004,117.137,0.004
		c1.91,0,1.912,0.001,1.91,1.856c-0.001,0.73-0.013,1.463-0.02,2.193c-0.411,0.309-0.886,0.16-1.328,0.161
		c-40.78,0.007-81.563,0.007-122.341,0.001c-0.447,0-0.917,0.123-1.34-0.139c-0.027-0.367-0.056-0.735-0.083-1.104
		c-0.17-0.489-0.087-0.996-0.087-1.495C0.153,82.56,0.153,42.69,0.158,2.819C0.158,2.32,0.074,1.813,0.245,1.322z"/>
	<g class="velaR" id="v1">
		<path fill="#D3AD5D" d="M14.885,112.399c-0.007-1.645-0.055-3.288-0.004-4.931c0.027-0.865-0.215-1.177-1.136-1.186
			c-3.03-0.026-3.034-0.064-3.029-3.069c0.009-5.888,0.024-11.775,0.036-17.664c1.325-0.395,2.708,0.09,4.036-0.261
			c0.024-1.629,0.092-3.259,0.06-4.887c-0.017-0.833,0.149-1.267,1.104-1.186c0.99,0.083,1.991,0.04,2.988,0.054
			c0.326,1.506,0.058,3.03,0.145,4.545c0.027,0.49-0.076,0.986,0.087,1.47l0.034,0.033c1.262,0.224,2.542-0.029,3.806,0.143
			c0.362,0.386,0.232,0.865,0.233,1.309c0.008,6.031-0.022,12.064,0.029,18.097c0.01,1.157-0.36,1.545-1.488,1.46
			c-0.857-0.063-1.728,0.05-2.592,0.083c-0.317,1.989,0.096,4.005-0.214,5.994l-0.059,0.059
			C17.572,112.593,16.226,112.715,14.885,112.399z"/>
		<path fill="#1A1A1A" d="M18.99,95.869c-0.002,1.779-0.019,3.56,0.008,5.337c0.009,0.62-0.166,0.965-0.843,0.885
			c-0.045-0.006-0.091-0.002-0.137,0c-3.144,0.148-3.144,0.148-3.144-2.967c0-2.782,0.027-5.563-0.018-8.347
			c-0.014-0.824,0.211-1.088,1.068-1.1c3.064-0.038,3.064-0.073,3.064,3.045C18.991,93.771,18.991,94.82,18.99,95.869z"/>
	</g>
	<g class="vela" id="v2">
		<path fill="#D3AD5D" d="M41.936,56.483c0.008,9.316,0.004,18.635,0.038,27.951c0.003,0.836-0.225,1.078-1.072,1.087
			c-3.112,0.03-3.082,0.065-3.121,3.259c-0.043,3.46,0.645,2.922-3.069,2.972c-0.357,0.005-0.739,0.068-1.032-0.233
			c-0.2-1.978,0.13-3.97-0.172-5.942c-0.957-0.025-1.919-0.127-2.869-0.056c-1.005,0.076-1.202-0.332-1.198-1.253
			c0.031-8.909,0.018-17.817,0.022-26.728c0-0.398-0.102-0.831,0.233-1.169c1.265-0.173,2.545,0.081,3.807-0.143l0.033-0.034
			c0.194-1.564,0.027-3.136,0.093-4.702c0.018-0.438-0.126-0.898,0.139-1.313c1.275-0.024,2.896-0.536,3.727,0.175
			c0.868,0.745,0.189,2.413,0.291,3.672c0.059,0.725,0.072,1.453,0.106,2.18C39.222,56.547,40.611,56.048,41.936,56.483z"/>
		<path fill="#1B1B1A" d="M37.749,70.85c0,3.013-0.033,6.025,0.018,9.038c0.018,1.002-0.164,1.46-1.33,1.434
			c-2.721-0.063-2.722,0.004-2.722-2.745c0-5.522,0.028-11.048-0.024-16.571c-0.01-1.081,0.181-1.513,1.392-1.471
			c2.665,0.09,2.667,0.02,2.667,2.646C37.749,65.737,37.749,68.293,37.749,70.85z"/>
	</g>
	<g class="velaR" id="v3">
		<path fill="#D3AD5D" d="M48.305,18.906c1.001-0.013,2.003-0.058,3.003-0.028c0.836,0.025,1.132-0.345,1.113-1.147
			c-0.032-1.365,0.02-2.732-0.021-4.098c-0.02-0.715,0.131-1.037,0.962-1.062c3.167-0.095,3.165-0.129,3.165,3.08
			c0,3.199,0,3.198,3.153,3.22c0.318,0.002,0.636,0.023,0.954,0.035c0.262,0.424,0.138,0.893,0.139,1.34
			c0.008,12.98,0.009,25.961-0.002,38.942c0,0.44,0.147,0.916-0.159,1.326c-1.052,0.008-2.104,0.05-3.153,0.011
			c-0.727-0.027-0.959,0.258-0.94,0.962c0.037,1.415-0.016,2.834,0.02,4.25c0.018,0.715-0.139,1.047-0.97,1.077
			c-3.155,0.112-3.154,0.146-3.154-2.997c0-3.269,0-3.269-3.264-3.282c-0.272-0.002-0.548-0.013-0.821-0.021
			c-0.273-0.315-0.162-0.698-0.163-1.054c-0.006-13.163-0.005-26.327,0-39.49C48.165,19.614,48.072,19.236,48.305,18.906z"/>
		<path fill="#1A1A1A" d="M52.413,39.65c0-5.12,0.029-10.24-0.025-15.359c-0.012-1.048,0.3-1.3,1.31-1.286
			c2.83,0.042,2.832-0.004,2.832,2.891c0,9.646-0.025,19.291,0.029,28.937c0.008,1.229-0.33,1.54-1.521,1.504
			c-2.623-0.078-2.625-0.016-2.625-2.696C52.413,48.975,52.413,44.313,52.413,39.65z"/>
	</g>
	<g class="vela" id="v4">
		<path fill="#D3AD5D" d="M75.439,47.905c1.001,0.026,2.006,0.113,3.003,0.059c0.874-0.048,1.064,0.302,1.063,1.107
			c-0.027,6.204-0.034,12.409,0.004,18.614c0.006,0.939-0.338,1.166-1.193,1.129c-0.951-0.041-1.907,0.046-2.861,0.078
			c-0.276,1.564-0.048,3.146-0.136,4.718c-0.026,0.48,0.164,0.993-0.162,1.442c-1.049,0.008-2.1-0.024-3.146,0.032
			c-0.743,0.042-0.937-0.259-0.916-0.951c0.041-1.412-0.026-2.828,0.025-4.24c0.028-0.813-0.212-1.126-1.071-1.119
			c-0.98,0.007-2.257,0.466-2.873-0.235c-0.593-0.674-0.173-1.922-0.177-2.916c-0.019-5.428,0.017-10.854-0.03-16.282
			c-0.009-1.026,0.197-1.417,1.329-1.389c2.807,0.07,2.809,0.009,2.809-2.847c0-0.092-0.012-0.186,0.001-0.273
			c0.146-1.013-0.528-2.554,0.315-2.932c1.082-0.485,2.564-0.415,3.846,0.063C75.468,43.94,75.138,45.931,75.439,47.905z"/>
		<path fill="#1B1B1A" d="M75.231,58.397c-0.002,1.78-0.016,3.563,0.006,5.343c0.009,0.612-0.161,0.868-0.841,0.916
			c-3.283,0.232-3.28,0.255-3.28-3c0-2.785,0.024-5.571-0.017-8.356c-0.012-0.812,0.211-1.104,1.065-1.13
			c3.066-0.089,3.066-0.121,3.066,2.94C75.232,56.206,75.232,57.301,75.231,58.397z"/>
	</g>
	<g class="velaR" id="v5">
		<path fill="#D3AD5D" d="M89.735,89.742c-1.001-0.031-2.003-0.104-3.003-0.081c-0.737,0.019-1.051-0.181-1.048-0.992
			c0.023-9.04,0.023-18.081,0-27.121c-0.003-0.812,0.31-1.011,1.048-0.992c1,0.023,2.002-0.05,3.003-0.081
			c0.292-1.521,0.043-3.059,0.134-4.585c0.031-0.532-0.146-1.084,0.14-1.595c1.05-0.012,2.101,0.007,3.148-0.046
			c0.715-0.037,0.961,0.224,0.938,0.941c-0.045,1.459,0.022,2.923-0.026,4.382c-0.025,0.792,0.282,1.009,1.036,1.015
			c0.986,0.007,2.284-0.458,2.884,0.221c0.631,0.713,0.198,2.008,0.2,3.046c0.017,8.127-0.015,16.255,0.035,24.382
			c0.007,1.135-0.278,1.474-1.43,1.441c-2.71-0.072-2.69-0.013-2.723,2.7c-0.014,1.13,0.497,2.611-0.205,3.298
			c-0.761,0.743-2.255,0.172-3.426,0.245c-0.136,0.01-0.272-0.01-0.41-0.017c-0.381-1.463-0.058-2.952-0.17-4.426
			C89.817,90.899,89.995,90.304,89.735,89.742z"/>
		<path fill="#1A1A1A" d="M94.071,75.108c0,3.018-0.033,6.035,0.021,9.052c0.018,0.965-0.163,1.372-1.258,1.356
			c-2.876-0.039-2.877,0.018-2.877-2.865c0-5.532,0.021-11.064-0.021-16.596c-0.008-1.012,0.168-1.435,1.319-1.404
			c2.813,0.073,2.815,0.009,2.815,2.775C94.071,69.988,94.071,72.547,94.071,75.108z"/>
	</g>
	<g class="vela" id="v6">
		<path fill="#D3AD5D" d="M116.855,64.627c-1.049,0.008-2.101,0.049-3.147,0.012c-0.717-0.025-0.964,0.245-0.945,0.953
			c0.037,1.46-0.018,2.923,0.021,4.383c0.018,0.715-0.253,0.916-0.954,0.947c-3.173,0.144-3.171,0.165-3.171-2.968
			c0-3.194,0-3.219-3.094-3.289c-0.739-0.017-1.04-0.183-1.036-0.987c0.035-9.355,0.039-18.713,0.052-28.068
			c1.307-0.395,2.675,0.099,3.983-0.272c0.031-1.597,0.112-3.194,0.074-4.79c-0.021-0.899,0.167-1.283,1.186-1.279
			c2.949,0.009,2.941-0.039,2.953,2.926c0.005,1.048,0.06,2.096,0.091,3.145c1.314,0.352,2.677-0.08,3.994,0.233l0.06,0.059
			c0.151,0.302,0.103,0.626,0.103,0.943c0.002,9.001,0.003,18.002-0.003,27.004C117.019,63.929,117.13,64.312,116.855,64.627z"/>
		<path fill="#1A1A1A" d="M108.656,50.002c0-3.059,0.035-6.118-0.021-9.177c-0.017-0.919,0.284-1.13,1.157-1.129
			c2.979,0.003,2.979-0.031,2.979,2.984c0,5.523-0.026,11.05,0.024,16.573c0.01,1.033-0.276,1.31-1.298,1.293
			c-2.842-0.043-2.843,0.005-2.843-2.874C108.656,55.117,108.656,52.559,108.656,50.002z"/>
	</g>
</g>
</svg>
