<?xml version="1.0" encoding="utf-8"?>
<!-- Generator: Adobe Illustrator 22.0.0, SVG Export Plug-In . SVG Version: 6.00 Build 0)  -->
<svg version="1.1" id="Layer_2" xmlns="http://www.w3.org/2000/svg" xmlns:xlink="http://www.w3.org/1999/xlink" x="0px" y="0px"
	 viewBox="0 0 300 300" style="enable-background:new 0 0 300 300;" xml:space="preserve">
<style type="text/css">
	.st0{fill:none;stroke:#DEAC57;stroke-width:6;stroke-miterlimit:10;}
	.st1{fill:none;stroke:#DEAC57;stroke-width:4;stroke-miterlimit:10;}
	.st2{fill:none;stroke:#DEAC57;stroke-width:3;stroke-miterlimit:10;}
</style>
<path class="st0" d="M261,150"/>
<circle class="st1" cx="142" cy="150" r="32.5"/>
<circle class="st1" cx="142" cy="150" r="39"/>
<line class="st2" x1="143.6" y1="157.8" x2="156.7" y2="145.2"/>
<line class="st2" x1="126.9" y1="148.4" x2="136.5" y2="157.8"/>
<line class="st2" x1="110.1" y1="145.1" x2="118.4" y2="145.1"/>
<line class="st2" x1="163.8" y1="137.4" x2="168.7" y2="132.9"/>
<line class="st2" x1="173.7" y1="127.4" x2="178.6" y2="123"/>
<line class="st2" x1="187.9" y1="119.2" x2="198.3" y2="119.2"/>
<path class="st2" d="M164.6,182.5l20.3,20.4c1.3,1.3,3,2.2,4.9,2.3c1.6,0.1,3.5-0.3,5-2.1c3.3-4,1.8-7.6,0.8-8.8
	c-1-1.2-21.3-21.5-21.3-21.5"/>
<line class="st2" x1="170.7" y1="189" x2="180.7" y2="179.3"/>
<circle class="st2" cx="124.1" cy="145.1" r="5"/>
<circle class="st2" cx="140" cy="161.5" r="5"/>
<circle class="st2" cx="159.6" cy="140.8" r="5"/>
<circle class="st2" cx="182.2" cy="119.3" r="5"/>
<path class="st0" d="M89.3,59c0,0,51.8-37.3,108.8-8.3s61,80.7,61,80.7s12.3,54-31.7,97.7s-98,29.7-98,29.7S77,247.3,54.7,206
	s-13.7-84.3-6.3-97"/>
</svg>
