<?xml version="1.0" encoding="utf-8"?>
<!-- Generator: Adobe Illustrator 22.0.0, SVG Export Plug-In . SVG Version: 6.00 Build 0)  -->
<svg version="1.1" id="Layer_2" xmlns="http://www.w3.org/2000/svg" xmlns:xlink="http://www.w3.org/1999/xlink" x="0px" y="0px"
	 viewBox="0 0 300 300" style="enable-background:new 0 0 300 300;" xml:space="preserve">
<style type="text/css">
	.st0{fill:none;stroke:#DEAC57;stroke-width:6;stroke-miterlimit:10;}
</style>
<path class="st0" d="M89.3,58c0,0,51.8-37.3,108.8-8.3s61,80.7,61,80.7s12.3,54-31.7,97.7s-98,29.7-98,29.7S77,246.3,54.7,205
	s-13.7-84.3-6.3-97"/>
<ellipse class="st0" cx="150" cy="115" rx="20" ry="20.5"/>
<g id="Layer_3">
	<path class="st0" d="M102.5,142.8c0,0,27.3-1.8,47.3,13.3c0,0,21.8-16,46.5-13.3l0.1,12.5l-1.8,0.9c-2.8,1.4-4.6,4.2-4.6,7.3l0,2.1
		l0,3.1c0,3.1,1.9,5.8,4.7,7l1.8,0.8l0.1,11.8c0,0-32.3,5-46,13.5c0,0-26.5-14.3-47-12l-0.3-13.1l2.5-1.1c2.3-0.9,3.7-3.1,3.8-5.6
		l0.1-4.1l0-3.4c0-0.6-0.1-1.2-0.2-1.7c-0.7-2.2-2.1-4.3-4.1-5.2l-2.5-1.2L102.5,142.8z"/>
</g>
<g id="Layer_4">
	<path class="st0" d="M175.3,144.1c-9.2-7.4-13.6-8.2-25.3-8.6c-17-0.6-23.3,5.8-24.3,6.8c0,0-0.8,0.3-1.8,3"/>
</g>
<g id="Layer_5">
	<line class="st0" x1="149.8" y1="156" x2="150.5" y2="201.8"/>
</g>
<g id="Layer_6">
	<path class="st0" d="M103.2,154.7l-1.8,0.2c-3.4,0.8-5.5,4.4-5.8,7.8l-0.2,2.5l0.1,3.4c0.1,3,1.9,5.8,4.6,7.1l2.3,1.2"/>
</g>
<g id="Layer_7">
	<path class="st0" d="M196.4,154.9l2.8,1.1c2.5,0.9,4.2,3.2,4.4,5.9l0.4,4.6l-0.3,3.2c-0.3,3.1-2.3,5.9-5.2,7.1l-2.1,0.9"/>
</g>
</svg>
