<?xml version="1.0" encoding="utf-8"?>
<!-- Generator: Adobe Illustrator 16.0.3, SVG Export Plug-In . SVG Version: 6.00 Build 0)  -->
<!DOCTYPE svg PUBLIC "-//W3C//DTD SVG 1.1//EN" "http://www.w3.org/Graphics/SVG/1.1/DTD/svg11.dtd">
<svg version="1.1" id="Capa_1" xmlns="http://www.w3.org/2000/svg" xmlns:xlink="http://www.w3.org/1999/xlink" x="0px" y="0px"
	 width="215.988px" height="215.989px" viewBox="0 0 215.988 215.989" enable-background="new 0 0 215.988 215.989"
	 xml:space="preserve">
	 <style>
	 	.element{
			stroke-dasharray: 1000;
			stroke-dashoffset: 1000;
		}

		.animate .element{
			animation: 1s strokes 1s linear forwards;
		}

		.eagle{
			opacity: 0;
			transition: 1s ease 1.5s;
		}

		.animate .eagle{
			opacity: 1;
			fill: url(#SVGID_1_);
		}

		.animate #eagle{
			fill: url(#SVGID_2_);
		}

		@keyframes strokes{
			to{
				stroke-dashoffset: 0;
			}
		}

	 </style>
<g id='graph'>
	<path class='element eagle' fill="rgba(0,0,0,1)" stroke="url(#SVGID_1_)" stroke-width="2" d="M36.135,11.74c-0.552,0.794-0.832,1.11-1.015,1.471C24.394,34.349,18.482,56.544,19.868,80.195
		c0.811,13.835,4.671,26.827,12.869,38.459c8.749,12.408,21.334,19.951,35.236,25.795c9.237,3.885,18.622,7.441,27.862,11.32
		c4.173,1.748,8.118,3.992,11.061,7.48c2.143,2.541,3.288,5.367,2.523,8.832c-7.059-3.507-9.042-4.156-14.733-4.156
		c-0.5,0-1.027,0.005-1.59,0.014c-3.283,0.048-6.563,0.25-9.843,0.25c-0.046,0-0.093,0-0.139,0
		c-11.094-0.021-20.617-3.59-28.113-11.66c-0.398-0.426-0.686-1.121-1.494-1.121c-0.132,0-0.279,0.019-0.442,0.061
		c0.56,5.859,1.743,11.563,4.486,16.887c3.575,6.939,9.452,10.758,17.36,11.953c3.755,0.568,7.515,0.539,11.285,0.584
		c0.455,0.004,0.911,0.005,1.367,0.005c0.262,0,0.523,0,0.786-0.001c0.237,0,0.474-0.001,0.711-0.001
		c2.588,0,5.176,0.038,7.753,0.507c6.178,1.127,9.263,4.377,9.578,10.477c0.129,2.521,0.02,5.055,0.02,8.371
		c9.015-8.393,15.696-17.268,18.313-28.479c3.065-13.117-2.194-24.766-14.228-31.697c-2.654-1.527-5.491-2.777-8.296-4.051
		c-11.312-5.148-22.97-9.645-33.44-16.375c-9.409-6.049-17.152-13.504-21.475-23.775c-1.715-4.072-3.041-8.26-2.879-12.853
		c10.832,16.712,27.893,24.808,46.058,31.447c7.452,2.727,14.95,5.363,22.095,8.816c12.465,6.031,20.993,15.17,24.158,28.457
		c0.711,2.973,1.034,6.031,1.681,9.924c6.896-12.84,8.918-25.039,1.919-37.58c-4.932-8.838-12.618-15.08-21.573-19.868
		c-9.297-4.97-18.833-9.526-28.164-14.436C65.672,80.668,49.531,60.813,41.503,34.709C39.23,27.315,37.666,19.776,36.135,11.74
		L36.135,11.74z"/>
	<path class='element eagle' id='eagle' fill="rgba(0,0,0,0)" stroke="url(#SVGID_2_)" stroke-width="2" d="M172.957,81.927c-2.68,0-5.396,0.733-8.116,1.672c-6.266,2.157-12.104,5.23-18.146,7.875
		c-2.956,1.295-5.881,2.658-9.311,4.214c15.396,8.553,22.093,21.258,21.939,38.377c3.564-5.707,6.6-10.719,9.788-15.637
		c5.445-8.406,10.937-16.795,18.314-23.824c2.328-2.216,4.813-4.265,8.332-4.265c0.185,0,0.372,0.005,0.563,0.017
		c-1.147-4.805-3.927-7.219-8.145-7.22c-1.334,0-2.812,0.241-4.427,0.725c-0.765,0.229-1.501,0.784-2.313,0.784
		c-0.347,0-0.706-0.101-1.087-0.37C177.931,82.564,175.459,81.927,172.957,81.927L172.957,81.927z"/>
	<path class='element' fill="none" stroke="url(#SVGID_3_)" stroke-width="5" stroke-miterlimit="10" d="M13.903,67.277
		c-13.971,32.227-10.161,70.354,9.87,99.165c17.856,25.682,47.094,42.124,78.337,43.893c31.538,1.785,62.658-11.347,83.355-35.215
		c20.845-24.037,29.379-57.109,22.855-88.249c-6.361-30.365-26.804-56.742-54.537-70.612C121.922,0.324,82.926,2.36,52.89,21.551
		c-1.907,1.218-3.774,2.5-5.597,3.842"/>
</g>
	<linearGradient id="SVGID_1_" gradientUnits="userSpaceOnUse" x1="19.6685" y1="107.9951" x2="144.6709" y2="107.9951">
		<stop  offset="0" style="stop-color:#C59545"/>
		<stop  offset="0.118" style="stop-color:#C59545"/>
		<stop  offset="0.264" style="stop-color:#91632E"/>
		<stop  offset="0.4888" style="stop-color:#E5B35B"/>
		<stop  offset="0.6292" style="stop-color:#91632E"/>
		<stop  offset="0.7584" style="stop-color:#C59545"/>
		<stop  offset="0.9326" style="stop-color:#D4AE5D"/>
		<stop  offset="0.9944" style="stop-color:#D6A242"/>
		<stop  offset="1" style="stop-color:#D6A242"/>
	</linearGradient>
	<linearGradient id="SVGID_2_" gradientUnits="userSpaceOnUse" x1="137.3848" y1="107.9956" x2="196.3213" y2="107.9956">
		<stop  offset="0" style="stop-color:#C59545"/>
		<stop  offset="0.118" style="stop-color:#C59545"/>
		<stop  offset="0.264" style="stop-color:#91632E"/>
		<stop  offset="0.4888" style="stop-color:#E5B35B"/>
		<stop  offset="0.6292" style="stop-color:#91632E"/>
		<stop  offset="0.7584" style="stop-color:#C59545"/>
		<stop  offset="0.9326" style="stop-color:#D4AE5D"/>
		<stop  offset="0.9944" style="stop-color:#D6A242"/>
		<stop  offset="1" style="stop-color:#D6A242"/>
	</linearGradient>
	<linearGradient id="SVGID_3_" gradientUnits="userSpaceOnUse" x1="3.0732" y1="108.0425" x2="212.9697" y2="108.0425">
		<stop  offset="0" style="stop-color:#C59545"/>
		<stop  offset="0.118" style="stop-color:#C59545"/>
		<stop  offset="0.264" style="stop-color:#91632E"/>
		<stop  offset="0.4888" style="stop-color:#E5B35B"/>
		<stop  offset="0.6292" style="stop-color:#91632E"/>
		<stop  offset="0.7584" style="stop-color:#C59545"/>
		<stop  offset="0.9326" style="stop-color:#D4AE5D"/>
		<stop  offset="0.9944" style="stop-color:#D6A242"/>
		<stop  offset="1" style="stop-color:#D6A242"/>
	</linearGradient>
</svg>
