<?xml version="1.0" encoding="utf-8"?>
<!-- Generator: Adobe Illustrator 16.0.3, SVG Export Plug-In . SVG Version: 6.00 Build 0)  -->
<!DOCTYPE svg PUBLIC "-//W3C//DTD SVG 1.1//EN" "http://www.w3.org/Graphics/SVG/1.1/DTD/svg11.dtd">
<svg version="1.1" id="Object" xmlns="http://www.w3.org/2000/svg" xmlns:xlink="http://www.w3.org/1999/xlink" x="0px" y="0px"
	 width="586.895px" height="469.767px" viewBox="0 0 586.895 469.767" enable-background="new 0 0 586.895 469.767"
	 xml:space="preserve">
<g>
	
		<linearGradient id="SVGID_1_" gradientUnits="userSpaceOnUse" x1="-37.4619" y1="263.0435" x2="69.2562" y2="156.3254" gradientTransform="matrix(1.6 0 0 1.6 71.3321 61.4302)">
		<stop  offset="0" style="stop-color:#C0C8D4"/>
		<stop  offset="1" style="stop-color:#FFFFFF"/>
	</linearGradient>
	<polygon fill="url(#SVGID_1_)" points="10.247,384.327 128.167,261.288 128.167,469.766 10.407,469.766 	"/>
	
		<linearGradient id="SVGID_2_" gradientUnits="userSpaceOnUse" x1="25.999" y1="224.2827" x2="88.2475" y2="162.0343" gradientTransform="matrix(1.6 0 0 1.6 71.3321 61.4302)">
		<stop  offset="0" style="stop-color:#C0C8D4"/>
		<stop  offset="1" style="stop-color:#FFFFFF"/>
	</linearGradient>
	<polygon fill="url(#SVGID_2_)" points="127.847,261.288 127.847,261.288 207.527,289.926 207.527,469.766 128.167,469.766 	"/>
	
		<linearGradient id="SVGID_3_" gradientUnits="userSpaceOnUse" x1="87.7188" y1="214.6128" x2="155.4477" y2="146.8838" gradientTransform="matrix(1.6 0 0 1.6 71.3321 61.4302)">
		<stop  offset="0" style="stop-color:#C0C8D4"/>
		<stop  offset="1" style="stop-color:#FFFFFF"/>
	</linearGradient>
	<polygon fill="url(#SVGID_3_)" points="207.527,289.926 207.527,289.926 265.766,239.846 265.766,469.766 207.527,469.766 	"/>
	
		<linearGradient id="SVGID_4_" gradientUnits="userSpaceOnUse" x1="129.1182" y1="201.0127" x2="205.5075" y2="124.6235" gradientTransform="matrix(1.6 0 0 1.6 71.3321 61.4302)">
		<stop  offset="0" style="stop-color:#C0C8D4"/>
		<stop  offset="1" style="stop-color:#FFFFFF"/>
	</linearGradient>
	<polygon fill="url(#SVGID_4_)" points="265.766,239.846 265.766,239.846 346.567,232.647 346.567,469.766 265.766,469.766 	"/>
	
		<linearGradient id="SVGID_5_" gradientUnits="userSpaceOnUse" x1="159.6489" y1="205.4316" x2="277.1592" y2="87.9212" gradientTransform="matrix(1.6 0 0 1.6 71.3321 61.4302)">
		<stop  offset="0" style="stop-color:#C0C8D4"/>
		<stop  offset="1" style="stop-color:#FFFFFF"/>
	</linearGradient>
	<polygon fill="url(#SVGID_5_)" points="450.727,62.567 450.727,469.766 346.567,469.766 346.567,232.647 346.567,232.647 	"/>
	
		<linearGradient id="SVGID_6_" gradientUnits="userSpaceOnUse" x1="243.0303" y1="162.7021" x2="380.28" y2="25.4525" gradientTransform="matrix(1.6 0 0 1.6 71.3321 61.4302)">
		<stop  offset="0" style="stop-color:#C0C8D4"/>
		<stop  offset="0.9981" style="stop-color:#FFFFFF"/>
	</linearGradient>
	<polygon fill="url(#SVGID_6_)" points="450.727,469.766 450.727,62.567 450.727,62.567 580.807,6.087 580.807,469.766 	"/>
</g>
</svg>
