<?xml version="1.0" encoding="utf-8"?>
<!-- Generator: Adobe Illustrator 22.0.0, SVG Export Plug-In . SVG Version: 6.00 Build 0)  -->
<svg version="1.1" id="Layer_1" xmlns="http://www.w3.org/2000/svg" xmlns:xlink="http://www.w3.org/1999/xlink" x="0px" y="0px"
	 viewBox="0 0 5000 5000" style="enable-background:new 0 0 5000 5000;" xml:space="preserve">
<style type="text/css">
	.st0{display:none;}
	.st1{fill:none;stroke:#D3AD5D;stroke-width:30;stroke-miterlimit:10;}
</style>
<g>
	<polygon class="st0" points="386.6,3470.7 386.6,3606.7 4610.2,3606.7 4610.2,1144.5 4369.3,1219.7 4224.8,1498.7 3872.9,1866.9 
		3510.2,2216 3068.3,2232.4 2506.4,2606.1 1966.4,2709.7 1426.3,3200.7 848,3367.1 	"/>
	<path d="M4148.1,1242.9c-26.7-25.7-19.3-55,16.5-65.1l434.5-122.7c35.7-10.1,57.6,11,48.6,46.9l-109.4,436.2
		c-9,35.9-38.2,44.2-64.9,18.5L4148.1,1242.9z"/>
	<g>
		<path d="M379,3583.5c-44.4,0-85.1-29.4-97.3-74c-14.7-53.5,17-108.8,70.8-123.4l1060.9-288.4l503.5-493.2
			c15.2-14.8,34.6-24.5,55.6-27.7l497.6-75.3l502.2-367.9c17.8-13,39.4-19.9,61.5-19.5l465.4,7.6l759.1-795.6
			c38.4-40.2,102.3-41.9,142.7-3.7c40.4,38.2,42.1,101.8,3.7,142.1L3615,2292c-19.5,20.4-46.6,31.7-74.9,31.3l-475.7-7.8
			L2569.7,2678c-13.2,9.7-28.5,16-44.7,18.4l-489.9,74.1l-498.9,488.7c-12.3,12.1-27.5,20.8-44.2,25.3L405.6,3579.9
			C396.7,3582.3,387.8,3583.5,379,3583.5z"/>
		<path class="st1" d="M371,3582.5c-44.4,0-85.1-29.4-97.3-74.1c-14.7-53.5,17-108.8,70.8-123.4l1060.9-288.4l503.5-493.2
			c15.2-14.8,34.6-24.5,55.6-27.7l497.6-75.3l502.2-367.9c17.8-13,39.4-19.9,61.5-19.6l465.4,7.6l742.9-786.3l79.6,70.8l65.5,70.8
			L3607,2291c-19.5,20.4-46.6,31.7-74.9,31.3l-475.7-7.8l-494.8,362.5c-13.2,9.7-28.5,16-44.7,18.4l-489.9,74.1l-498.9,488.7
			c-12.3,12.1-27.5,20.8-44.2,25.3L397.6,3578.9C388.7,3581.4,379.8,3582.5,371,3582.5z"/>
	</g>
	<path class="st1" d="M4145.1,1242c-26.7-25.7-19.3-55,16.5-65.1l434.5-122.7c35.7-10.1,57.6,11,48.6,46.9l-109.4,436.2
		c-9,35.9-38.2,44.2-64.9,18.5L4145.1,1242z"/>
</g>
</svg>
