<?xml version="1.0" encoding="utf-8"?>
<!-- Generator: Adobe Illustrator 16.0.3, SVG Export Plug-In . SVG Version: 6.00 Build 0)  -->
<!DOCTYPE svg PUBLIC "-//W3C//DTD SVG 1.1//EN" "http://www.w3.org/Graphics/SVG/1.1/DTD/svg11.dtd">
<svg version="1.1" id="OBJECTS" xmlns="http://www.w3.org/2000/svg" xmlns:xlink="http://www.w3.org/1999/xlink" x="0px" y="0px"
	 width="528.4px" height="408px" viewBox="0 0 528.4 408" enable-background="new 0 0 528.4 408" xml:space="preserve">
<style>

		.element{
			stroke-dasharray: 1000;
			stroke-dashoffset: 1000;
		}

		#shield{
			opacity: 0;
		}

		.animate + #shield{
			animation: 1s fade 3.5s ease forwards;
		}

		.animate > .element{
			animation: 2s strokes 1s linear forwards;
		}

		@keyframes fade {
			to{
				opacity: 1;
			}
		}

		#first{
			animation-delay: 1.5s;
			animation-duration: 1.5s
		}

		#second{
			animation-delay: 2s;
			animation-duration: 1.5s
		}

		#third{
			animation-delay: 2.4s;
			animation-duration: 1.5s
		}

		#fourth{
			animation-delay: 2.8s;
			animation-duration: 1.5s
		}

		@keyframes strokes{
			to{
				stroke-dashoffset: 0;
			}
		}

		#graph{
			opacity: 1
		}

		.animate{
				animation: 1s fadeOff 3.5s ease forwards;
		}

		@keyframes fadeOff{
			to{
				opacity: 0
			}
		}
	</style>
<g id="graph">
	
		<line fill="none" stroke="#BF8A21" stroke-width="8" stroke-miterlimit="10" stroke-dasharray="25,15" x1="504.172" y1="14.115" x2="504.172" y2="394.821"/>
	<path fill="none" stroke="#BF8A21" stroke-width="8" stroke-miterlimit="10" stroke-dasharray="20,15" d="M388.12,94.354v304.723"
		/>
	
		<line fill="none" stroke="#BF8A21" stroke-width="8" stroke-miterlimit="10" stroke-dasharray="20,15" x1="135.561" y1="162.464" x2="135.561" y2="399.076"/>
	
		<line fill="none" stroke="#BF8A21" stroke-width="8" stroke-miterlimit="10" stroke-dasharray="20,15" x1="268.134" y1="260.891" x2="268.134" y2="403.801"/>
	<polyline class="element" fill="none" stroke="#BF8A21" stroke-width="8" stroke-miterlimit="10" points="5.346,403.801 135.559,141.598 
		268.134,260.891 388.119,99.079 504.173,23.095 	"/>
	
		<ellipse class="element" id="first" stroke="#BF8A21" stroke-width="8" stroke-miterlimit="10" cx="135.559" cy="141.598" rx="18.885" ry="18.897"/>
	
		<ellipse class="element" id="second" stroke="#BF8A21" stroke-width="8" stroke-miterlimit="10" cx="268.134" cy="260.888" rx="18.883" ry="18.898"/>
	<ellipse class="element" id="third" stroke="#BF8A21" stroke-width="8" stroke-miterlimit="10" cx="388.119" cy="99.079" rx="18.883" ry="18.897"/>
	
		<ellipse class="element" id="fourth" stroke="#BF8A21" stroke-width="8" stroke-miterlimit="10" cx="504.173" cy="23.096" rx="18.882" ry="18.897"/>
	<polyline class="element" fill="none" stroke="#BF8A21" stroke-width="8" stroke-miterlimit="10" points="5.346,8.135 5.346,403.801 
		517.941,403.801 	"/>
</g>
<g class="shield" id="shield">
	<g>
		<g>
			<path d="M271.091,406.296V1.704c0,0-106.834,13.388-174.393,31.98c0,0,4.508,104.867,13.645,164.365
				c9.136,59.5,16.992,80.326,52.342,115.279C198.034,348.282,271.091,406.296,271.091,406.296z"/>
			<path d="M271.091,406.296V1.704c0,0,106.836,13.388,174.395,31.98c0,0-4.506,104.867-13.646,164.365
				c-9.137,59.5-16.99,80.326-52.343,115.279C344.148,348.282,271.091,406.296,271.091,406.296z"/>
		</g>
		<path fill="#BF8A21" d="M111.174,44.297c1.441,28.529,5.778,104.881,12.959,151.633c8.627,56.194,15.221,74.706,48.362,107.477
			c27.272,26.968,78.275,68.619,98.597,85.005l0,0V15.771l0,0C257.868,17.484,172.178,28.89,111.174,44.297z"/>
		<path fill="#BF8A21" d="M369.689,303.409c33.139-32.772,39.732-51.285,48.36-107.477c7.182-46.738,11.519-123.103,12.96-151.634
			C370.006,28.89,284.315,17.484,271.091,15.771v372.643C291.413,372.027,342.407,330.382,369.689,303.409z"/>
		<path d="M119.89,50.768c1.771,33.384,5.94,101.075,12.516,143.894c8.278,53.914,13.875,71.053,45.974,102.792
			c24.88,24.604,69.83,61.648,92.711,80.195l0,0V24.212l0,0C257.673,25.97,178.75,36.588,119.89,50.768z"/>
		<path d="M363.802,297.454c32.101-31.739,37.698-48.879,45.977-102.792c6.575-42.803,10.744-110.502,12.517-143.894
			C363.434,36.588,284.51,25.97,271.091,24.212v353.438C293.968,359.109,338.912,322.07,363.802,297.454z"/>
	</g>
	<g>
		<g>
			<defs>
				<path id="SVGID_1_" d="M197.321,72.402c-10.844,21.403-16.844,43.862-15.442,67.808c0.823,14.004,4.731,27.156,13.03,38.931
					c8.856,12.563,21.595,20.2,35.669,26.112c9.351,3.932,18.853,7.532,28.207,11.456c4.223,1.773,8.213,4.042,11.194,7.576
					c2.172,2.566,3.33,5.43,2.556,8.938c-7.772-3.854-9.464-4.298-16.523-4.189c-3.37,0.049-6.736,0.256-10.104,0.249
					c-11.231-0.021-20.872-3.629-28.459-11.801c-0.469-0.502-0.788-1.373-1.96-1.073c0.568,5.934,1.765,11.706,4.541,17.097
					c3.619,7.021,9.568,10.889,17.575,12.098c3.799,0.575,7.605,0.549,11.423,0.593c0.725,0.003,1.453,0.003,2.178,0.003
					c2.861-0.003,5.723-0.003,8.572,0.514c6.251,1.144,9.375,4.429,9.694,10.604c0.127,2.556,0.019,5.12,0.019,8.474
					c9.13-8.493,15.891-17.479,18.54-28.826c3.104-13.279-2.222-25.075-14.404-32.092c-2.687-1.544-5.56-2.809-8.397-4.101
					c-11.452-5.209-23.254-9.76-33.851-16.572c-9.526-6.126-17.364-13.67-21.74-24.066c-1.737-4.123-3.079-8.366-2.915-13.014
					c10.965,16.918,28.238,25.114,46.625,31.833c7.545,2.758,15.132,5.43,22.365,8.928c12.621,6.103,21.256,15.353,24.456,28.805
					c0.721,3.009,1.049,6.11,1.705,10.044c6.979-12.998,9.027-25.348,1.943-38.041c-4.994-8.946-12.773-15.268-21.843-20.109
					c-9.409-5.035-19.064-9.647-28.51-14.62c-25.213-13.27-41.554-33.369-49.681-59.795c-2.301-7.485-3.883-15.116-5.432-23.251
					C197.789,71.715,197.506,72.034,197.321,72.402"/>
			</defs>
			<clipPath id="SVGID_2_">
				<use xlink:href="#SVGID_1_"  overflow="visible"/>
			</clipPath>
			
				<linearGradient id="SVGID_3_" gradientUnits="userSpaceOnUse" x1="23.4849" y1="192.4385" x2="24.4977" y2="192.4385" gradientTransform="matrix(125.0146 0 0 -125.0146 -2754.3777 24226.0508)">
				<stop  offset="0" style="stop-color:#C59545"/>
				<stop  offset="0.118" style="stop-color:#C59545"/>
				<stop  offset="0.264" style="stop-color:#91632E"/>
				<stop  offset="0.4888" style="stop-color:#E5B35B"/>
				<stop  offset="0.6292" style="stop-color:#91632E"/>
				<stop  offset="0.7584" style="stop-color:#C59545"/>
				<stop  offset="0.9326" style="stop-color:#D4AE5D"/>
				<stop  offset="0.9944" style="stop-color:#D6A242"/>
				<stop  offset="1" style="stop-color:#D6A242"/>
			</linearGradient>
			<rect x="180.478" y="70.911" clip-path="url(#SVGID_2_)" fill="url(#SVGID_3_)" width="130.42" height="194.878"/>
		</g>
	</g>
	<g>
		<g>
			<defs>
				<path id="SVGID_4_" d="M328.639,143.655c-6.341,2.183-12.253,5.294-18.368,7.971c-2.993,1.31-5.952,2.689-9.426,4.264
					c15.585,8.662,22.364,21.522,22.207,38.849c3.61-5.777,6.681-10.849,9.911-15.828c5.509-8.508,11.068-17.003,18.538-24.118
					c2.48-2.362,5.136-4.538,9.004-4.299c-1.53-6.401-5.921-8.611-12.728-6.577c-1.102,0.334-2.147,1.333-3.44,0.42
					c-2.452-1.73-4.953-2.376-7.484-2.376C334.141,141.962,331.393,142.704,328.639,143.655"/>
			</defs>
			<clipPath id="SVGID_5_">
				<use xlink:href="#SVGID_4_"  overflow="visible"/>
			</clipPath>
			
				<linearGradient id="SVGID_6_" gradientUnits="userSpaceOnUse" x1="24.7256" y1="191.8096" x2="25.7378" y2="191.8096" gradientTransform="matrix(58.9453 0 0 -58.9453 -1156.6322 11474.5957)">
				<stop  offset="0" style="stop-color:#C59545"/>
				<stop  offset="0.118" style="stop-color:#C59545"/>
				<stop  offset="0.264" style="stop-color:#91632E"/>
				<stop  offset="0.4888" style="stop-color:#E5B35B"/>
				<stop  offset="0.6292" style="stop-color:#91632E"/>
				<stop  offset="0.7584" style="stop-color:#C59545"/>
				<stop  offset="0.9326" style="stop-color:#D4AE5D"/>
				<stop  offset="0.9944" style="stop-color:#D6A242"/>
				<stop  offset="1" style="stop-color:#D6A242"/>
			</linearGradient>
			<rect x="300.846" y="141.883" clip-path="url(#SVGID_5_)" fill="url(#SVGID_6_)" width="59.661" height="52.855"/>
		</g>
	</g>
	<g>
		<g>
			<defs>
				<path id="SVGID_7_" d="M209.291,82.031c0.953,1.579,1.749,3.249,2.375,4.999c16.844-11.771,37.326-18.698,59.437-18.698
					c57.365,0,103.884,46.495,103.884,103.877c0,57.365-46.519,103.881-103.884,103.881c-57.386,0-103.879-46.516-103.879-103.881
					c0-13.809,2.747-26.954,7.64-39.004c-1.761-0.675-3.379-1.515-4.856-2.51c-5.277,12.805-8.237,26.802-8.237,41.514
					c0,60.37,48.945,109.313,109.333,109.313c60.369,0,109.313-48.943,109.313-109.313c0-60.388-48.946-109.335-109.313-109.335
					C248.158,62.873,226.875,69.954,209.291,82.031"/>
			</defs>
			<clipPath id="SVGID_8_">
				<use xlink:href="#SVGID_7_"  overflow="visible"/>
			</clipPath>
			
				<linearGradient id="SVGID_9_" gradientUnits="userSpaceOnUse" x1="23.0259" y1="192.6748" x2="24.0381" y2="192.6748" gradientTransform="matrix(216.0193 0 0 -216.0193 -4812.4028 41793.8242)">
				<stop  offset="0" style="stop-color:#C59545"/>
				<stop  offset="0.118" style="stop-color:#C59545"/>
				<stop  offset="0.264" style="stop-color:#91632E"/>
				<stop  offset="0.4888" style="stop-color:#E5B35B"/>
				<stop  offset="0.6292" style="stop-color:#91632E"/>
				<stop  offset="0.7584" style="stop-color:#C59545"/>
				<stop  offset="0.9326" style="stop-color:#D4AE5D"/>
				<stop  offset="0.9944" style="stop-color:#D6A242"/>
				<stop  offset="1" style="stop-color:#D6A242"/>
			</linearGradient>
			<rect x="161.768" y="62.873" clip-path="url(#SVGID_8_)" fill="url(#SVGID_9_)" width="218.648" height="218.647"/>
		</g>
	</g>
</g>
</svg>
