<?xml version="1.0" encoding="utf-8"?>
<!-- Generator: Adobe Illustrator 16.0.3, SVG Export Plug-In . SVG Version: 6.00 Build 0)  -->
<!DOCTYPE svg PUBLIC "-//W3C//DTD SVG 1.1//EN" "http://www.w3.org/Graphics/SVG/1.1/DTD/svg11.dtd">
<svg version="1.1" id="Layer_2" xmlns="http://www.w3.org/2000/svg" xmlns:xlink="http://www.w3.org/1999/xlink" x="0px" y="0px"
	 width="419.375px" height="391.25px" viewBox="-2.5 1.875 419.375 391.25" enable-background="new -2.5 1.875 419.375 391.25"
	 xml:space="preserve">
	 <style>

		.element{
			stroke-dasharray: 1000;
			stroke-dashoffset: 1000;
			fill: #FFFFFF;
			transition: 1s ease 1s;
			opacity: 0;
		}

		.animate + #shield > .letter > .element{
			opacity: 1;
			transition-delay: 2s;
		}

		.animate > .letter > .element{
			opacity: 1;
		}

	</style>
<g id="graph">
	<path stroke="#BF8A21" stroke-width="10" stroke-miterlimit="10" d="M283.75,266.25c0,67.5-63.75,121.875-140.625,121.875
		c-28.125,0-76.875-18.75-76.875-18.75l-48.75,7.5L28.75,337.5c0,0-26.25-45-26.25-71.25c0-67.5,63.75-121.875,140.625-121.875
		S283.75,198.75,283.75,266.25z"/>
	<g class='letter'>
		<path class='element' d="M126.808,241.172v15.508h17.928v-15.508h4.839v37.065h-4.839v-17.378h-17.928v17.378h-4.784v-37.065
			H126.808z"/>
		<path class='element' d="M162.667,241.172v37.065h-4.784v-37.065H162.667z"/>
		<path class='element' d="M173.117,278.842c-1.87,0-3.189-1.484-3.189-3.409c0-1.979,1.375-3.409,3.245-3.409
			c1.979,0,3.245,1.43,3.245,3.409c0,1.925-1.265,3.409-3.245,3.409H173.117z M171.303,267.568l-0.77-26.396h5.279l-0.77,26.396
			H171.303z"/>
	</g>
</g>
<g id="shield">
	<path fill="#BF8A21" d="M416.875,123.75c0,31.875-37.5,82.5-37.5,82.5l30,39.375l-60-18.75c0,0-24.375,11.25-39.375,15
		c0,0-26.75-118.125-176.25-123.75C137.5,52.5,199.375,1.875,274.375,1.875C353.125,1.875,416.875,56.25,416.875,123.75z"/>
	<g class='letter'>
		<path class='element' d="M183.904,122.174L174.5,85.109h5.06l4.399,18.752c1.1,4.619,2.09,9.239,2.75,12.813h0.11
			c0.605-3.684,1.76-8.083,3.025-12.868l4.949-18.697h5.004l4.509,18.808c1.045,4.399,2.035,8.799,2.585,12.703h0.11
			c0.77-4.069,1.814-8.194,2.969-12.813l4.895-18.697h4.895l-10.504,37.065h-5.004l-4.675-19.302
			c-1.155-4.729-1.925-8.359-2.419-12.099h-0.11c-0.66,3.685-1.485,7.314-2.86,12.099l-5.279,19.302H183.904z"/>
		<path class='element' d="M225.1,109.746c0.11,6.544,4.29,9.239,9.129,9.239c3.465,0,5.555-0.605,7.369-1.375l0.825,3.464
			c-1.704,0.77-4.619,1.705-8.854,1.705c-8.194,0-13.089-5.444-13.089-13.473s4.729-14.353,12.484-14.353
			c8.688,0,10.998,7.644,10.998,12.538c0,0.99-0.11,1.76-0.165,2.255H225.1z M239.288,106.281c0.056-3.08-1.265-7.864-6.709-7.864
			c-4.894,0-7.039,4.509-7.424,7.864H239.288z"/>
		<path class='element' d="M249.961,83.129h4.839v39.045h-4.839V83.129z"/>
		<path class='element' d="M281.912,121.185c-1.265,0.66-4.069,1.595-7.645,1.595c-8.028,0-13.252-5.5-13.252-13.638
			c0-8.194,5.608-14.133,14.297-14.133c2.86,0,5.39,0.715,6.71,1.375l-1.101,3.739c-1.154-0.66-2.969-1.265-5.609-1.265
			c-6.104,0-9.403,4.509-9.403,10.063c0,6.159,3.96,9.954,9.239,9.954c2.75,0,4.564-0.715,5.939-1.32L281.912,121.185z"/>
		<path class='element' d="M311.337,108.646c0,9.844-6.819,14.133-13.253,14.133c-7.204,0-12.758-5.279-12.758-13.693
			c0-8.909,5.828-14.133,13.197-14.133C306.168,94.953,311.337,100.507,311.337,108.646z M290.22,108.921
			c0,5.83,3.354,10.229,8.084,10.229c4.62,0,8.084-4.345,8.084-10.339c0-4.509-2.255-10.229-7.974-10.229
			C292.694,98.583,290.22,103.862,290.22,108.921z"/>
		<path class='element' d="M317.445,102.762c0-2.75-0.055-5.004-0.221-7.204h4.234l0.221,4.29h0.165
			c1.484-2.53,3.96-4.894,8.358-4.894c3.63,0,6.379,2.2,7.534,5.334h0.11c0.824-1.485,1.869-2.64,2.969-3.464
			c1.596-1.21,3.355-1.87,5.885-1.87c3.52,0,8.744,2.31,8.744,11.548v15.673h-4.729v-15.068c0-5.114-1.87-8.194-5.774-8.194
			c-2.75,0-4.895,2.035-5.719,4.399c-0.221,0.66-0.385,1.54-0.385,2.419v16.443h-4.73v-15.948c0-4.234-1.869-7.314-5.554-7.314
			c-3.024,0-5.225,2.419-5.994,4.839c-0.274,0.715-0.386,1.54-0.386,2.364v16.058h-4.729V102.762z"/>
		<path class='element' d="M366.01,109.746c0.11,6.544,4.289,9.239,9.129,9.239c3.465,0,5.555-0.605,7.369-1.375l0.824,3.464
			c-1.704,0.77-4.619,1.705-8.854,1.705c-8.193,0-13.088-5.444-13.088-13.473s4.729-14.353,12.483-14.353
			c8.688,0,10.999,7.644,10.999,12.538c0,0.99-0.111,1.76-0.166,2.255H366.01z M380.198,106.281c0.055-3.08-1.265-7.864-6.71-7.864
			c-4.894,0-7.039,4.509-7.424,7.864H380.198z"/>
	</g>
</g>
</svg>
